<svg id="Layer_1" data-name="Layer 1" xmlns="http://www.w3.org/2000/svg" viewBox="0 0 413.13 382.18"><path d="M292.69,221.67,439.81,35.91H352.92q-26.93.27-46.64,25.32l-73,92.74-73-92.74q-20-25.32-46.64-25.32H56.29q-14.65,0-14.65,12.26,0,6.13,5.59,13.06l126.6,160.44L94.48,322.9,39.5,393q-5.59,7.18-5.59,13,1.61,12,14.92,12H105.6q26.64,0,46.37-25l81.29-103.67L314.55,393q19.71,25.05,46.37,25H447Z" transform="translate(-33.91 -35.91)" fill="#9ff3ff"/><polygon points="286.03 186.09 362.3 282.96 362.3 89.21 286.03 186.09" fill="#9ff3ff"/></svg>